<?xml version="1.0" encoding="utf-8"?>
<!-- Generator: Adobe Illustrator 21.0.2, SVG Export Plug-In . SVG Version: 6.00 Build 0)  -->
<svg version="1.1" id="Layer_1" xmlns="http://www.w3.org/2000/svg" xmlns:xlink="http://www.w3.org/1999/xlink" x="0px" y="0px"
	 viewBox="0 0 50 50" style="enable-background:new 0 0 50 50;" xml:space="preserve">
<style type="text/css">
	.st0{fill:#FFFFFF;}
</style>
<path class="st0" d="M44.4,6c-0.5,0-1,0.2-1.4,0.3c-0.4,0.2-2.9,1.2-6.5,2.7s-8.3,3.5-12.9,5.5c-9.3,4-18.4,7.9-18.4,7.9l0.1,0
	c0,0-0.5,0.2-1.1,0.6c-0.3,0.2-0.6,0.4-0.8,0.8S2.9,24.7,3,25.3c0.2,1.9,2.2,2.5,2.2,2.5l0,0l8.9,3c0.2,0.8,2.7,9,3.2,10.8
	c0.3,1,0.6,1.5,0.9,1.9c0.1,0.2,0.3,0.3,0.5,0.4c0.1,0,0.1,0.1,0.2,0.1c0,0,0,0,0,0c0,0,0,0,0,0l0,0c0,0,0,0,0,0c0,0,0.1,0,0.1,0
	c1,0.4,1.9-0.3,1.9-0.3l0,0l5.5-5.1l8.9,6.9l0.1,0.1c1.6,0.7,3,0.3,3.7-0.3s1.1-1.4,1.1-1.4l0-0.1l6.5-34c0.2-0.8,0.2-1.4,0-2
	s-0.5-1.1-1-1.4S44.9,6,44.4,6z M44.4,8c0.2,0,0.3,0,0.4,0s0.1,0,0.1,0.2s0.1,0.5-0.1,1.1l0,0l-6.5,33.8c0,0-0.2,0.3-0.5,0.6
	c-0.3,0.3-0.7,0.5-1.6,0.1l-9.7-7.6L26.4,36l0,0l-2.9-2.2l16.3-19.2c0.4-0.4,0.3-1.1-0.1-1.4C39.5,13.1,39.2,13,39,13
	c-0.2,0-0.4,0.1-0.5,0.2L14.8,28.9l-8.9-3.1c0,0-0.9-0.5-0.9-0.8c0,0,0,0,0-0.1c0-0.1,0.2-0.2,0.3-0.3C5.6,24.5,6,24.3,6,24.3l0,0
	l0,0c0,0,9.1-3.9,18.4-7.9c4.6-2,9.3-4,12.9-5.5c3.6-1.5,6.2-2.6,6.4-2.7C44,8.1,44.2,8,44.4,8z M33.6,18.8L21.2,33.3l0,0
	c0,0,0,0-0.1,0.1c0,0,0,0.1-0.1,0.1c-0.1,0.1-0.1,0.2-0.1,0.4c0,0,0,0,0,0l-1.6,7.2c0-0.1,0-0.1-0.1-0.2v0
	c-0.5-1.6-2.8-9.4-3.2-10.5L33.6,18.8z M22.6,35.7l2.2,1.7l-3.3,3L22.6,35.7z"/>
</svg>
